<?xml version="1.0" encoding="utf-8"?><!DOCTYPE svg  PUBLIC '-//W3C//DTD SVG 1.1//EN'
  'http://www.w3.org/Graphics/SVG/1.1/DTD/svg11.dtd'>
<svg enable_background="new 0 0 1200 950" height="950px" pretty_print="False"
     style="stroke-linejoin: round; stroke:#000; fill: none;" version="1.1" viewBox="0 0 1200 950" width="1200px"
     xmlns="http://www.w3.org/2000/svg" xmlns:xlink="http://www.w3.org/1999/xlink">
  <defs>
    <style type="text/css"><![CDATA[path { fill-rule: evenodd; }]]></style>
  </defs>
  <metadata>
    <views>
      <view h="950" padding="0" w="1200">
        <proj id="laea-usa" lat0="0" lon0="0"/>
        <bbox h="0" w="0" x="0" y="0"/>
      </view>
    </views>
  </metadata>
  <defs>
  </defs>
  <g id="layer0">
    <path d="M694.907,107.473 L824.537,201.236 L966.898,269.532 L1007.407,435.064 L987.732,470.949 L949.537,477.894 L946.065,532.300 L790.972,475.579 L692.593,380.658 L694.907,107.473 Z" id="11"/>
    <path d="M135.880,241.750 L146.296,378.343 L103.472,535.772 L117.361,619.117 L150.926,620.275 L184.491,565.869 L260.880,519.566 L302.546,532.300 L361.574,519.566 L418.287,564.711 L411.343,602.911 L338.426,600.596 L326.852,689.729 L378.935,711.722 L419.444,796.225 L486.574,839.055 L704.167,826.321 L692.593,717.510 L611.574,590.178 L615.046,396.864 L530.556,327.410 L395.139,374.871 L374.306,374.871 L315.278,297.314 L135.880,241.750 Z"  id="22"/>
    <path d="M138.194,240.593 L135.880,220.914 L205.324,109.788 L322.222,109.788 L348.843,160.721 L380.093,163.036 L454.167,128.309 L547.917,110.945 L692.593,109.788 L690.278,379.501 L616.204,395.707 L530.556,325.095 L395.139,373.713 L374.306,372.555 L316.435,294.998 L138.194,240.593 Z"  id="33"/>
    <path d="M616.204,396.864 L690.278,380.658 L789.815,476.736 L946.065,533.457 L944.907,549.663 L1072.222,615.644 L1095.370,678.153 L1028.241,839.055 L737.731,825.164 L705.324,826.321 L693.750,715.195 L612.732,589.020 L616.204,396.864 Z"  id="44"/>
  </g>
</svg>
